#N canvas 806 307 450 300 10;
#X obj 142 112 tgl 15 0 empty empty empty 17 7 0 10 -262144 -1 -1 0
1;
#X obj 152 193 bng 15 250 50 0 empty empty empty 17 7 0 10 -262144
-1 -1;
#X obj 145 144 metro 500;
#X floatatom 228 98 5 0 0 0 - - -;
#X obj 273 126 bng 15 250 50 0 empty empty empty 17 7 0 10 -262144
-1 -1;
#X floatatom 280 195 5 0 0 0 - - -;
#X msg 300 84 3;
#X obj 278 156 random 10;
#X connect 0 0 2 0;
#X connect 2 0 1 0;
#X connect 3 0 2 1;
#X connect 4 0 7 0;
#X connect 6 0 7 1;
#X connect 7 0 5 0;
