#N canvas 737 243 450 300 10;
#X obj 74 112 +;
#X obj 234 67 -;
#X obj 63 215 *;
#X floatatom 46 77 5 0 0 0 - - -;
#X floatatom 89 76 5 0 0 0 - - -;
#X floatatom 163 11 5 0 0 0 - - -;
#X floatatom 25 186 5 0 0 0 - - -;
#X floatatom 78 182 5 0 0 0 - - -;
#X floatatom 216 175 5 0 0 0 - - -;
#X floatatom 74 146 5 0 0 0 - - -;
#X msg 230 12 4;
#X floatatom 246 104 5 0 0 0 - - -;
#X floatatom 80 268 5 0 0 0 - - -;
#X floatatom 215 243 5 0 0 0 - - -;
#X obj 216 206 / 10;
#X connect 0 0 9 0;
#X connect 1 0 11 0;
#X connect 2 0 12 0;
#X connect 3 0 0 0;
#X connect 4 0 0 1;
#X connect 5 0 1 0;
#X connect 6 0 2 0;
#X connect 7 0 2 1;
#X connect 8 0 14 0;
#X connect 10 0 1 1;
#X connect 14 0 13 0;
